<svg width="61" height="60" viewBox="0 0 61 60" fill="none" xmlns="http://www.w3.org/2000/svg">
<path d="M20.5 7.75024V17.5002C20.5 20.1524 21.5536 22.6959 23.4289 24.5713C25.3043 26.4467 27.8478 27.5002 30.5 27.5002C33.1522 27.5002 35.6957 26.4467 37.5711 24.5713C39.4464 22.6959 40.5 20.1524 40.5 17.5002V7.75024M23 37.5L20.5 35M38 37.5L40.5 35M20.5 47.5L15.5 55M40.5 47.5L45.5 55M23 47.5C16 47.5 10.5 42 10.5 35V25C10.5 19.6957 12.6071 14.6086 16.3579 10.8579C20.1086 7.10714 25.1957 5 30.5 5C35.8043 5 40.8914 7.10714 44.6421 10.8579C48.3929 14.6086 50.5 19.6957 50.5 25V35C50.5 42 45 47.5 38 47.5H23Z" stroke="#4B286D" stroke-width="2" stroke-linecap="round" stroke-linejoin="round"/>
</svg>
